<?xml version="1.0" encoding="utf-8"?>
<!-- Generator: Adobe Illustrator 26.0.1, SVG Export Plug-In . SVG Version: 6.00 Build 0)  -->
<svg xmlns="http://www.w3.org/2000/svg" xmlns:xlink="http://www.w3.org/1999/xlink">
    <symbol id="phone" viewBox="0 0 11 11">
        <path d="M10.76,9.77c-0.16,0.38-0.6,0.63-0.95,0.83C9.34,10.85,8.88,11,8.35,11c-0.73,0-1.38-0.3-2.05-0.54
            c-0.48-0.17-0.94-0.38-1.37-0.65C3.61,8.99,2.01,7.39,1.19,6.06C0.92,5.63,0.71,5.17,0.54,4.7C0.3,4.03,0,3.38,0,2.65
            C0,2.13,0.15,1.66,0.4,1.2c0.2-0.35,0.45-0.79,0.83-0.95C1.48,0.13,2.03,0,2.31,0c0.05,0,0.11,0,0.16,0.02
            c0.16,0.05,0.34,0.44,0.41,0.59c0.25,0.45,0.49,0.9,0.75,1.34C3.77,2.16,4,2.41,4,2.65c0,0.48-1.41,1.17-1.41,1.59
            c0,0.21,0.2,0.48,0.3,0.67c0.79,1.42,1.77,2.41,3.2,3.2c0.19,0.11,0.46,0.3,0.67,0.3C7.18,8.41,7.88,7,8.35,7
            c0.24,0,0.49,0.23,0.7,0.36c0.44,0.26,0.89,0.5,1.34,0.75c0.16,0.08,0.54,0.25,0.59,0.41C11,8.58,11,8.63,11,8.69
            C11,8.97,10.88,9.52,10.76,9.77z"/>
    </symbol>

    <symbol id="vk" viewBox="0 0 125.18 71.43">
        <path d="M124.52,64.5c-0.13-0.28-0.27-0.55-0.42-0.81c-2.17-3.91-6.32-8.71-12.45-14.4l-0.13-0.14l-0.07-0.06
		    l-0.06-0.07h-0.07c-2.78-2.67-4.54-4.45-5.28-5.34c-1.3-1.44-1.65-3.49-0.91-5.28c0.52-1.33,2.48-4.18,5.87-8.54
			c1.78-2.3,3.19-4.15,4.23-5.54c7.52-10,10.78-16.39,9.78-19.16l-0.39-0.65c-0.54-0.55-1.24-0.93-2-1.08
			c-1.36-0.34-2.78-0.39-4.17-0.16L99.66,3.4c-0.43-0.12-0.87-0.12-1.3,0L97.5,3.6l-0.32,0.16l-0.26,0.2
			c-0.28,0.18-0.52,0.41-0.72,0.68c-0.26,0.35-0.48,0.73-0.65,1.14c-1.95,5.06-4.29,9.97-7,14.67c-1.61,2.69-3.09,5-4.44,7
			c-1,1.55-2.13,3.01-3.38,4.37c-0.77,0.81-1.6,1.56-2.48,2.25c-0.74,0.56-1.3,0.8-1.69,0.72l-1.11-0.27
			c-0.6-0.38-1.1-0.9-1.45-1.52c-0.41-0.8-0.66-1.66-0.75-2.55c-0.13-1-0.21-1.9-0.23-2.63s0-1.79,0-3.13s0.06-2.26,0.06-2.74
			c0-1.65,0-3.45,0.1-5.38s0.12-3.46,0.16-4.59s0.07-2.33,0.07-3.59c0.02-1.01-0.05-2.01-0.23-3c-0.15-0.72-0.38-1.42-0.69-2.09
			c-0.28-0.64-0.74-1.18-1.33-1.56c-0.67-0.41-1.4-0.7-2.16-0.88C66.11,0.27,63.18-0.02,60.23,0C52.15-0.08,47,0.45,44.65,1.57
			c-0.94,0.51-1.78,1.19-2.48,2c-0.78,1-0.89,1.48-0.33,1.56c2.61,0.39,4.46,1.33,5.55,2.8l0.39,0.79c0.43,0.96,0.73,1.97,0.91,3
			c0.32,1.57,0.51,3.16,0.58,4.76c0.22,2.71,0.22,5.44,0,8.15c-0.21,2.26-0.42,4-0.61,5.28c-0.14,1.06-0.44,2.09-0.88,3.06
			c-0.23,0.48-0.49,0.95-0.78,1.39c-0.08,0.13-0.19,0.24-0.32,0.32c-0.56,0.22-1.16,0.33-1.76,0.33
			c-0.81-0.08-1.59-0.39-2.22-0.91c-1-0.73-1.9-1.57-2.7-2.52c-1.18-1.4-2.24-2.89-3.17-4.46c-1.17-1.91-2.39-4.17-3.64-6.78
			l-1-1.89c-0.67-1.21-1.56-2.98-2.67-5.31c-1.11-2.33-2.11-4.58-3-6.75c-0.31-0.85-0.87-1.57-1.62-2.08l-0.33-0.2
			c-0.31-0.22-0.65-0.41-1-0.55c-0.5-0.21-1.03-0.35-1.57-0.42L4.17,3.26c-1.82,0-3.06,0.42-3.71,1.24L0.19,4.89
			C0.04,5.22-0.02,5.58,0,5.94c0.03,0.6,0.16,1.2,0.39,1.76C3,13.82,5.84,19.73,8.9,25.42s5.73,10.28,8,13.76
			c2.25,3.48,4.54,6.75,6.89,9.82s3.9,5.07,4.66,6c0.76,0.87,1.36,1.52,1.79,2l1.63,1.56c1.43,1.37,2.97,2.62,4.6,3.75
			c2.16,1.54,4.4,2.98,6.71,4.3c2.7,1.48,5.58,2.62,8.57,3.39c3.09,0.87,6.31,1.23,9.52,1.07h7.5c1.29-0.03,2.52-0.54,3.45-1.43
			l0.26-0.33c0.24-0.38,0.41-0.79,0.52-1.23c0.17-0.58,0.25-1.18,0.24-1.79c-0.07-1.69,0.08-3.39,0.42-5.05
			c0.21-1.18,0.59-2.32,1.11-3.39c0.37-0.7,0.84-1.35,1.4-1.92c0.32-0.35,0.68-0.67,1.07-0.93c0.17-0.09,0.34-0.17,0.52-0.23
			c1-0.35,2.27,0,3.68,1c1.49,1.08,2.83,2.36,4,3.78c1.24,1.5,2.72,3.18,4.46,5c1.38,1.54,2.9,2.94,4.56,4.17l1.31,0.78
			c1.06,0.63,2.19,1.13,3.37,1.5c1.17,0.42,2.43,0.53,3.65,0.33l16.68-0.27c1.33,0.07,2.66-0.21,3.85-0.81
			c0.77-0.36,1.37-1,1.68-1.8c0.16-0.73,0.16-1.49,0-2.22c-0.09-0.59-0.25-1.17-0.46-1.73L124.52,64.5z"/>
    </symbol>

    <symbol id="fb" viewBox="0 0 36.71 36.71">
        <path d="M36.71,34.69c0,1.1-0.9,2-2,2h-9.38V22.5h4.77l0.72-5.5h-5.49v-3.58c0-1.61,0.44-2.7,2.75-2.7H31v-5
			c-1.42-0.15-2.85-0.22-4.28-0.22c-4.23,0-7.12,2.59-7.12,7.33V17h-4.78v5.5h4.79v14.21H2c-1.1,0-2-0.9-2-2V2c0-1.1,0.9-2,2-2
			h32.68c1.1,0,2,0.9,2,2L36.71,34.69z"/>
    </symbol>

    <symbol id="inst" viewBox="0 0 36.66 36.66">
        <path d="M32.3,0H4.36C1.96,0,0.01,1.95,0,4.35v28c0.01,2.4,1.96,4.35,4.36,4.34c0,0,0,0,0,0H32.3
			c2.4,0.01,4.35-1.94,4.36-4.34c0,0,0,0,0,0v-28C36.65,1.95,34.7,0,32.3,0 M26.35,5.73c0-0.64,0.51-1.15,1.15-1.15h3.43
			c0.64,0,1.15,0.51,1.15,1.15c0,0,0,0,0,0v3.44c0,0.63-0.51,1.14-1.14,1.14c0,0-0.01,0-0.01,0H27.5c-0.63,0.01-1.14-0.5-1.15-1.13
			c0,0,0-0.01,0-0.01V5.73z M18.35,11.34c3.87,0,7,3.13,7,7s-3.13,7-7,7s-7-3.13-7-7C11.35,14.47,14.48,11.34,18.35,11.34
			c0.02,0,0.03,0,0.05,0 M33.23,32.08c-0.01,0.63-0.52,1.14-1.15,1.15H4.58c-0.63-0.01-1.14-0.52-1.14-1.15V14.89H8
			c-0.56,1.07-0.84,2.27-0.8,3.48c0.18,6.16,5.33,11.01,11.49,10.82c5.9-0.18,10.64-4.92,10.82-10.82c0.07-1.22-0.24-2.44-0.89-3.48
			h4.59L33.23,32.08z"/>
    </symbol>

    <symbol id="tw" viewBox="0 0 37.45 31.21">
        <path d="M36.42,0.58c-1.51,0.91-3.16,1.56-4.88,1.91C30.1,0.91,28.07,0,25.93,0c-4.3,0.05-7.73,3.58-7.68,7.88
			c0,0,0,0,0,0c-0.01,0.6,0.06,1.2,0.2,1.79C12.23,9.33,6.46,6.34,2.61,1.44c-0.68,1.22-1.02,2.6-1,4C1.59,8.05,2.85,10.51,5,12
			c-1.23-0.04-2.43-0.39-3.5-1v0.1c-0.02,3.7,2.55,6.92,6.17,7.7c-0.65,0.19-1.32,0.28-2,0.28c-0.49,0-0.97-0.05-1.45-0.14
			c0.96,3.18,3.86,5.38,7.18,5.47c-2.7,2.18-6.08,3.37-9.55,3.37c-0.62,0-1.24-0.03-1.85-0.11c3.49,2.31,7.59,3.54,11.78,3.54
			c14.13,0,21.86-12,21.86-22.42c0-0.34,0-0.68,0-1c1.51-1.12,2.8-2.51,3.81-4.09C36.04,4.34,34.54,4.76,33,4.94
			C34.63,3.95,35.85,2.4,36.42,0.58"/>
    </symbol>

    <symbol id="face" viewBox="0 0 20.6 20.8">
        <path class="st0" d="M10.3,0.2C4.7,0.2,0.1,4.8,0.1,10.4c0,5.6,4.6,10.2,10.2,10.2c5.6,0,10.2-4.6,10.2-10.2
		C20.5,4.8,15.9,0.2,10.3,0.2z M10.3,19.8c-5.2,0-9.4-4.2-9.4-9.4C0.9,5.2,5.1,1,10.3,1s9.4,4.2,9.4,9.4
		C19.7,15.6,15.5,19.8,10.3,19.8z"/>
	    <path class="st0" d="M10.3,15.7c-3.5,0-5.6-3.1-5.6-3.1L4,13.1c2.8,3.6,6.3,3.5,6.3,3.5s3.5,0.2,6.3-3.5l-0.7-0.5
		C15.9,12.6,13.8,15.7,10.3,15.7z"/>
	    <path class="st0" d="M6.9,11.5C9.3,10.4,9.7,9,9.7,8.3c0-0.8-0.5-1.7-1.4-1.7c-1,0-1.4,0.5-1.4,0.5S6.5,6.6,5.5,6.6
		c-0.9,0-1.4,1-1.4,1.7C4.1,9,4.5,10.4,6.9,11.5z M6.9,8.1c0.5-0.8,1.9-0.9,2,0.1c0,1.4-2,2.4-2,2.4s-2-1-2-2.4
		C5,7.2,6.4,7.3,6.9,8.1z"/>
	    <path class="st0" d="M13.7,11.5c2.4-1.1,2.8-2.5,2.8-3.1c0-0.8-0.5-1.7-1.4-1.7c-1,0-1.4,0.5-1.4,0.5s-0.4-0.5-1.4-0.5
		c-0.9,0-1.4,1-1.4,1.7C10.9,9,11.3,10.4,13.7,11.5z M13.7,8.1c0.5-0.8,1.9-0.9,2,0.1c0,1.4-2,2.4-2,2.4s-2-1-2-2.4
		C11.8,7.2,13.2,7.3,13.7,8.1z"/>
    </symbol>

    <symbol id="auto" viewBox="0 0 18.2 14.8">
        <path class="st0" d="M2.9,5.7l1-0.8c0,0,0.1,0,0.1,0c0.3,0,0.5-0.2,0.5-0.5c0-0.2-0.1-0.3-0.2-0.4V1.9H3.8V4
		C3.6,4.1,3.5,4.2,3.5,4.4c0,0,0,0.1,0,0.1l-1,0.8L2.9,5.7z"/>
	    <path class="st0" d="M18.1,11.1V7.9c0-1-0.4-1.4-0.4-1.4s-1-1.3-1.6-2.1s-1.4-0.8-1.4-0.8h-3.4V3.1c0-0.7-0.5-1.2-1.2-1.2H7.2
		C6.5,0.9,5.3,0.2,4,0.2C1.8,0.2,0.1,2,0.1,4.2c0,0.9,0.3,1.7,0.8,2.4V11c0,0.7,0.5,1.2,1.2,1.2h0.5c0,0,0,0.1,0,0.1
		c0,1.2,1,2.2,2.2,2.2c1.2,0,2.2-1,2.2-2.2c0-0.1,0-0.1,0-0.1H10h0.1c0.3,0,1,0,1.9,0c0,0,0,0.1,0,0.1c0,1.2,1,2.2,2.2,2.2
		c1.2,0,2.2-1,2.2-2.2c0-0.1,0-0.1,0-0.1c0.1,0,0.2,0,0.2,0C18.3,12.3,18.1,11.1,18.1,11.1z M17.6,7.6c0,0,0,0.1,0,0.3h-3.9
		c-0.2,0-0.4-0.2-0.4-0.4V5.9c0-0.2,0.2-0.4,0.4-0.4h2.6c0.3,0.3,0.6,0.7,0.8,1C17.6,7.1,17.6,7.6,17.6,7.6z M4,0.8
		c1.9,0,3.5,1.5,3.5,3.5S5.9,7.7,4,7.7S0.6,6.1,0.6,4.2S2.1,0.8,4,0.8z M4.7,14c-0.9,0-1.6-0.7-1.6-1.6s0.7-1.6,1.6-1.6
		s1.6,0.7,1.6,1.6S5.6,14,4.7,14z M6.7,11.7c-0.3-0.8-1.1-1.5-2-1.5c-0.9,0-1.7,0.6-2,1.5H2c-0.3,0-0.6-0.3-0.6-0.6V7.1
		c0.7,0.6,1.6,1,2.6,1c2.2,0,3.9-1.8,3.9-3.9c0-0.6-0.2-1.2-0.4-1.7h2.6c0.3,0,0.6,0.3,0.6,0.6v8c0,0.3-0.3,0.6-0.6,0.6H6.7z
		 M14.1,14c-0.9,0-1.6-0.7-1.6-1.6s0.7-1.6,1.6-1.6s1.6,0.7,1.6,1.6S15,14,14.1,14z M16.6,11.8h-0.4c-0.3-0.9-1.1-1.5-2-1.5
		c-1,0-1.8,0.6-2,1.5h-1c0.2-0.2,0.3-0.4,0.3-0.7V4c0,0,2.2,0,3.1,0c0.9,0,1.3,0.6,1.3,0.6S15.8,4.8,16,5h-2.3
		c-0.5,0-0.8,0.4-0.8,0.8v1.6c0,0.5,0.4,0.8,0.8,0.8h4c0,0.8,0,2,0,2.6C17.6,11.9,16.6,11.8,16.6,11.8z"/>   
    </symbol>

    <symbol id="checkmark" viewBox="0 0 10.9 8.7">
        <path class="st0" d="M10.3,0.6L10.3,0.6C9.6-0.2,8.4-0.2,7.7,0.5L4,4.2L3.2,3.4c-0.7-0.7-1.9-0.7-2.6,0L0.5,3.4
	c-0.7,0.7-0.7,1.9,0,2.6l2.2,2.2C3.1,8.6,3.6,8.7,4,8.7c0.5,0,0.9-0.2,1.3-0.5l5-5C11,2.5,11,1.3,10.3,0.6z"/>
    </symbol>

    <symbol id="human" viewBox="0 0 18.8 20">
        <path class="st0" d="M17.4,5.8c0.2-0.2,0.4-0.4,0.5-0.6c0.7-0.9,0.6-1.3-0.1-1.9S16,3.6,16,3.6s-0.1,0.1-0.2,0.2
    	c-1.1-1-2.5-1.8-4.1-2.2c-0.6-0.9-1.5-1.5-2.5-1.5c-1.1,0-2,0.7-2.6,1.6c-1.3,0.4-2.5,1.1-3.5,2C2.9,3.6,2.5,3.2,2,3.1
    	C1.3,3,0.6,3.5,0.5,4.2c0,0.4,0.4,1,0.9,1.6C0.5,7.2,0,8.8,0,10.6c0,5.1,4.2,9.3,9.4,9.3c1.8,0,3.6-0.5,5-1.4l-0.3-0.7c0,0,0,0,0,0
    	c-1.3-3.3-1-5.4-0.9-6.4c0.3-1.1,1.4-2.6,2-3.4c0.4-0.5,1-1,1.6-1.6C17.6,7.6,18,9,18,10.6c0,2.3-1,4.4-2.5,6l0.6,0.5
    	c1.7-1.7,2.7-4,2.7-6.5C18.8,8.8,18.3,7.2,17.4,5.8z M9.2,0.9c1.3,0,2.3,1.2,2.3,2.7s-1,2.7-2.3,2.7S6.9,5.2,6.9,3.6
    	S7.9,0.9,9.2,0.9z M9.2,7.1c1.7,0,3.1-1.6,3.1-3.5c0-0.4-0.1-0.7-0.2-1.1c1.2,0.4,2.2,1,3.1,1.8c-0.8,0.7-2,1.6-2.6,2
    	C11.7,7,10.2,7.7,9,7.7c-1.2,0-1.8-0.5-2.7-0.9C5.5,6.4,4.2,4.9,3.6,4.3c0.8-0.7,1.7-1.2,2.6-1.6C6.2,3,6.1,3.3,6.1,3.6
    	C6.1,5.6,7.5,7.1,9.2,7.1z M0.8,10.6c0-1.5,0.4-2.9,1.1-4.2c0.2,0.2,0.3,0.3,0.3,0.3s2.5,2.9,3,3.6c0.5,0.7-0.1,1.2-0.5,3
    	c-0.3,1.4-0.3,3.3-0.3,4.2C2.2,15.9,0.8,13.4,0.8,10.6z M16.3,5.8c-0.4,0.4-1.8,1.6-3,3.5c-1.2,1.9-1,3.4-0.9,4.5
    	c0.1,1.1,0.4,2.1,0.5,2.5c0.1,0.3,0.5,1.4,0.6,1.7c-1.2,0.6-2.6,1-4,1c-1.6,0-3-0.4-4.3-1.1c0-3.4,0.2-3.9,0.3-4.4
    	C5.5,13,5.8,12,6.1,11.2C6.3,10.5,6,9.9,5.7,9.6C5.4,9.3,2.5,5.8,2,5.1c-0.6-0.7-0.7-1-0.2-1.2c0.5-0.3,1.8,1.3,2.4,2
    	c0.5,0.7,2.8,2.6,4.9,2.5s3.6-1.2,4.2-1.6c0.5-0.4,3.1-2.5,3.5-2.8c0.4-0.3,0.9,0,0.8,0.3C17.5,4.6,16.7,5.4,16.3,5.8z"/>
    </symbol>

    <symbol id="leaf" viewBox="0 0 16 15.2">
        <path class="st0" d="M2.3,9.3c0,0.2,0.1,0.4,0.1,0.6C2.4,10.7,2.5,12,2.5,12H3C3,12,3,9.9,2.7,8.8c-0.3-1.2-0.4-3.4,0.3-5L2.5,3.6
		c0,0-0.6,1.2-0.6,3.1c0,1.2,0.1,1.7,0.2,2.2C1.7,8.6,0.6,7.6,0.7,5.5C0.9,3.1,3,0.9,3,0.9s3.7,3.5,0.4,7.4l0.4,0.3
		c0,0,1.5-1.7,1.5-3.6c0-1.9-0.8-3.5-2.3-4.8c0,0-2.6,2.5-2.8,5.5C0.1,8.5,2.2,9.5,2.2,9.5L2.3,9.3z"/>
	    <path class="st0" d="M7.5,6.7C3.8,7.8,4,11.4,4.1,12.2c-1.3,1.3-1.9,2.5-1.9,2.5l0.4,0.2c3.8-6.3,9.7-5.1,9.7-5.1V9.3
		c-3.6-0.4-6.1,1-7.8,2.4l0,0C4.4,10.4,5,7.3,8.8,7c4.4-0.1,6.5,2.5,6.5,2.5c-2.3,3.7-4.9,4.2-6.5,4.4C7.1,14.2,5,13,5,13l-0.2,0.4
		c0,0,1.8,1.2,4.1,1c5-0.6,6.9-5,6.9-5C15.3,8.4,11.6,5.7,7.5,6.7z"/>
    </symbol>

    <symbol id="muscle" viewBox="0 0 22.3 18.9">
        <path class="st0" d="M17.4,3.1c-2.1,0-4.8,1.5-4.7,4.6c0,0-4.1-1.3-5.3,3c0,0-0.7-1.5-1.6-2.2C4.8,7.8,3.6,6,3.5,5.1
	    c0.1-0.5,0.2-0.5,0.4-0.6c0.1,0,0.1,0.8,1,0.9c0.8-0.1,1-0.3,1.3-0.7l0.9-1c0,0,0.9-1.2,0.1-1.8C6.5,1.2,5.2-0.1,3.6,0.2
	    C2.7,0.4,2,1.1,2,1.1L0.8,2.2C0.8,2.2,0,3,0,4.6c0,1.4,0.3,3.7,0.3,3.7s0.3,1.8,0.4,2.4c0.1,0.6,0.9,4.1,2.8,6
	    c1.2,1.4,1.9,2,2.5,2.1c1,0,1.5-0.6,2.3-0.6c0.8,0,1.6,0.6,3.3,0.6s5.5-1,7.1-5.9c1.5-0.6,3.6-1.7,3.6-5C22.3,4.6,19.4,3.1,17.4,3.1
	    z M18.1,12.3c-1.1,4.4-4.6,5.6-6.3,5.8c-1.6,0-2.5-0.6-3.7-0.6c-0.7,0-1.7,0.6-2,0.6s-1.1-0.7-2.1-1.8s-1.4-2.1-1.8-2.9
	    c-0.4-0.8-1.1-4-1.1-4S0.8,6.2,0.8,4.8c0-1.3,0.6-2.1,0.6-2.1S2.2,2,3,1.3c0.9-0.7,2-0.2,2-0.2s1.1,0.7,1.5,1.1c0.5,0.4,0,0.8,0,0.8
	    S5.4,4.4,5,4.5C4.5,4.6,4.4,3.4,4.4,3.4C3.9,3.6,3.1,3.8,2.8,4.7C2.5,5.8,4.1,8.1,5.3,9.2c1.1,1.1,1.8,2.9,1.8,2.9L8,11.8
	    c0,0-0.1-2.1,1.7-3.2c2-1.1,3.8,0.4,3.8,0.4c-0.6-5,3.8-5.1,4.1-5.1s3.8,0.3,4.1,3.8C21.5,11.7,18.1,12.3,18.1,12.3z"/>
    </symbol>

    <symbol id="toilet" viewBox="0 0 15.2 15.2">
        <path class="st0" d="M4.3,3c0,0.2,0.4,0.4,1,0.4c0.6,0,1-0.2,1-0.4c0-0.2-0.4-0.4-1-0.4C4.8,2.6,4.3,2.7,4.3,3z"/>
	    <path class="st0" d="M15.1,6.7c0-1-0.8-1.8-1.8-1.8h-0.4v0H4.1c0,0-2.4,0.1-3.5-1.8c0.1-1.4,1.2-2.4,2.6-2.4h4
		c1.5,0,2.6,1.2,2.6,2.6v0.5h0.5V3.4c0-1.8-1.4-3.2-3.2-3.2H3.3c-1.8,0-3.2,1.4-3.2,3.2v1.3v0.2v3.2c0,1.8,1.4,3.2,3.2,3.2H4v-0.5
		H3.2c-1.5,0-2.6-1.2-2.6-2.6V4.9V4.7V4C0.9,4.4,1.9,5.4,4,5.4c3,0,8.8,0,8.8,0h0.5c0.7,0,1.2,0.5,1.2,1.2v0.6v0.2
		c0,0.7-0.5,1.2-1.2,1.2h-0.1v0H6.9c-1,0-1.8,0.8-1.8,1.8v2.7c0,1,0.8,1.8,1.8,1.8h6.4c1,0,1.8-0.8,1.8-1.8v-2.7c0,0,0-2.4,0-3.1
		c0,0,0,0,0-0.1V6.7z M14.5,13.3c0,0.7-0.5,1.2-1.2,1.2H6.8c-0.7,0-1.2-0.5-1.2-1.2v-2.9c0-0.7,0.5-1.2,1.2-1.2h1.9v1.7h0.5V9.2h2.3
		v0h0.9v1.7h0.5V9.2h0.4c0.5,0,1-0.2,1.3-0.5V13.3z"/>
    </symbol>

    <symbol id="logo" viewBox="0 0 53.6 39">
        <path class="st0" d="M0.4,8.8c0-2.5,0.8-4.5,2.4-6.2C4.5,1,6.5,0.1,9,0.1c2.6,0,4.6,0.7,6.2,2.2L14,4.1c-0.6-0.6-1.4-1-2.3-1.3
		S10,2.3,9.1,2.3c-1.9,0-3.4,0.6-4.6,1.8C3.4,5.4,2.9,6.9,2.9,8.8c0,1.9,0.6,3.5,1.7,4.8c1.2,1.3,2.7,1.9,4.6,1.9
		c0.9,0,1.9-0.2,2.8-0.6s1.7-0.9,2.4-1.6l1.3,1.7c-1.8,1.8-4,2.7-6.6,2.7c-2.6,0-4.7-0.8-6.3-2.5C1.2,13.4,0.4,11.3,0.4,8.8z"/>
	    <path class="st0" d="M18.7,17.4V0.4H21v7.4h8.8V0.4h2.4v16.9h-2.4V9.9H21v7.4H18.7z"/>
	    <path class="st0" d="M35.6,8.8c0-2.4,0.8-4.5,2.5-6.2c1.6-1.7,3.7-2.5,6.2-2.5c2.5,0,4.6,0.8,6.2,2.5C52.2,4.3,53,6.3,53,8.8
		c0,2.5-0.8,4.6-2.5,6.3s-3.7,2.6-6.2,2.6c-2.5,0-4.6-0.9-6.2-2.6C36.4,13.4,35.6,11.3,35.6,8.8z M38.1,8.8c0,1.9,0.6,3.5,1.8,4.8
		c1.2,1.3,2.7,1.9,4.5,1.9c1.8,0,3.3-0.6,4.5-1.9c1.2-1.3,1.8-2.9,1.8-4.8c0-1.8-0.6-3.4-1.8-4.6c-1.2-1.2-2.7-1.9-4.5-1.9
		c-1.8,0-3.3,0.6-4.5,1.9C38.6,5.4,38.1,6.9,38.1,8.8z"/>
	    <path class="st0" d="M0.4,29.8c0-2.5,0.8-4.5,2.4-6.2C4.5,22,6.5,21.1,9,21.1c2.6,0,4.6,0.7,6.2,2.2L14,25.1
		c-0.6-0.6-1.4-1-2.3-1.3s-1.8-0.5-2.6-0.5c-1.9,0-3.4,0.6-4.6,1.8c-1.1,1.2-1.7,2.8-1.7,4.6c0,1.9,0.6,3.5,1.7,4.8
		c1.2,1.3,2.7,1.9,4.6,1.9c0.9,0,1.9-0.2,2.8-0.6s1.7-0.9,2.4-1.6l1.3,1.7c-1.8,1.8-4,2.7-6.6,2.7c-2.6,0-4.7-0.8-6.3-2.5
		C1.2,34.4,0.4,32.3,0.4,29.8z"/>
        <path class="st0" d="M17.2,29.8c0-2.5,0.8-4.5,2.4-6.2c1.6-1.6,3.7-2.5,6.2-2.5c2.6,0,4.6,0.7,6.2,2.2l-1.2,1.8
		c-0.6-0.6-1.4-1-2.3-1.3s-1.8-0.5-2.6-0.5c-1.9,0-3.4,0.6-4.6,1.8c-1.1,1.2-1.7,2.8-1.7,4.6c0,1.9,0.6,3.5,1.7,4.8
		c1.2,1.3,2.7,1.9,4.6,1.9c0.9,0,1.9-0.2,2.8-0.6s1.7-0.9,2.4-1.6l1.3,1.7c-1.8,1.8-4,2.7-6.6,2.7c-2.6,0-4.7-0.8-6.3-2.5
		C18,34.4,17.2,32.3,17.2,29.8z"/>
        <path class="st0" d="M34,29.8c0-2.4,0.8-4.5,2.5-6.2c1.6-1.7,3.7-2.5,6.2-2.5c2.5,0,4.6,0.8,6.2,2.5c1.6,1.7,2.5,3.7,2.5,6.2
		c0,2.5-0.8,4.6-2.5,6.3s-3.7,2.6-6.2,2.6c-2.5,0-4.6-0.9-6.2-2.6C34.8,34.4,34,32.3,34,29.8z M36.4,29.8c0,1.9,0.6,3.5,1.8,4.8
		c1.2,1.3,2.7,1.9,4.5,1.9c1.8,0,3.3-0.6,4.5-1.9c1.2-1.3,1.8-2.9,1.8-4.8c0-1.8-0.6-3.4-1.8-4.6c-1.2-1.2-2.7-1.9-4.5-1.9
		c-1.8,0-3.3,0.6-4.5,1.9C37,26.4,36.4,27.9,36.4,29.8z"/>
    </symbol>

	<symbol id="choco-bar" viewBox="0 0 442.326 442.326">
		<path d="M430.024,68.87l-56.568-56.568C365.523,4.369,354.976,0,343.757,0c-11.218,0-21.766,4.369-29.699,12.302
		c-8.292,8.293-12.54,19.4-12.3,30.598c-11.214-0.246-22.305,4.009-30.597,12.301c-8.293,8.293-12.542,19.399-12.3,30.598
		c-11.206-0.274-22.305,4.008-30.598,12.3c-8.292,8.293-12.54,19.4-12.3,30.597c-11.214-0.228-22.305,4.008-30.597,12.301h-0.001
		L45.358,281.003c-0.008,0.008-0.015,0.016-0.023,0.023L3.056,323.304c-1.168,1.126-2.077,2.551-2.594,4.2
		c-0.049,0.156-0.094,0.313-0.135,0.471c-0.599,2.289-0.352,4.608,0.553,6.621c0.001,0.002,0.002,0.005,0.003,0.008l0.002,0.003
		c0.214,0.475,0.463,0.93,0.746,1.362c1.262,1.933,3.195,3.441,5.583,4.135c0.003,0,0.012,0.004,0.019,0.005
		c0.01,0.005,0.016,0.006,0.023,0.007l34.258,9.789l9.789,34.258c0.949,3.322,3.546,5.919,6.868,6.868l34.254,9.785l9.787,34.255
		c0.002,0.008,0.004,0.016,0.006,0.022c0.001,0.003,0.002,0.007,0.003,0.01c0.001,0.004,0.002,0.009,0.003,0.013
		c0.001,0.004,0.002,0.009,0.004,0.013l0.001,0.005c0.703,2.402,2.229,4.341,4.182,5.598c0.399,0.257,0.818,0.486,1.254,0.686
		c0.004,0.001,0.008,0.003,0.012,0.005c1.284,0.586,2.694,0.904,4.144,0.904c0.909,0,1.834-0.125,2.752-0.388
		c1.757-0.502,3.269-1.443,4.451-2.671l42.276-42.276c0.008-0.007,0.016-0.015,0.023-0.023l60.658-60.658
		c1.163,1.162,2.613,2.041,4.247,2.522c3.51,1.034,7.307,0.066,9.895-2.522l72.278-72.278c3.905-3.905,3.905-10.237,0-14.143
		l-0.85-0.85c4.17-6.869,6.249-14.751,6.08-22.677c11.19,0.233,22.304-4.008,30.597-12.3c8.293-8.293,12.542-19.399,12.3-30.598
		c11.2,0.261,22.305-4.008,30.598-12.3c8.293-8.293,12.542-19.4,12.3-30.598c11.205,0.209,22.305-4.009,30.597-12.301
		c7.933-7.933,12.302-18.479,12.302-29.698C442.326,87.351,437.957,76.804,430.024,68.87z M116.773,413.234l-6.644-23.255
		c-0.949-3.322-3.546-5.919-6.868-6.868l-34.254-9.785l-9.789-34.258c-0.949-3.322-3.546-5.919-6.868-6.868l-23.259-6.646
		l23.338-23.338l87.681,87.682L116.773,413.234z M234.953,309.196L211.46,200.459c-1.167-5.398-6.488-8.825-11.886-7.662
		c-5.398,1.166-8.829,6.488-7.663,11.886l23.703,109.71l-61.362,61.362l-87.681-87.681l125.865-125.865l94.752,94.752h0
		L234.953,309.196z M415.883,114.125c-6.691,6.689-16.878,8.355-25.349,4.145c-3.847-1.914-8.485-1.155-11.523,1.883
		s-3.795,7.677-1.883,11.523c4.211,8.471,2.546,18.657-4.144,25.348c-6.69,6.691-16.876,8.355-25.348,4.144
		c-3.847-1.913-8.486-1.155-11.523,1.883c-3.038,3.038-3.796,7.677-1.883,11.523c4.211,8.471,2.546,18.657-4.144,25.348
		c-6.69,6.69-16.878,8.355-25.348,4.144c-3.846-1.913-8.485-1.155-11.523,1.883c-3.038,3.038-3.795,7.677-1.883,11.523
		c2.626,5.281,2.967,11.229,1.231,16.581l-84.289-84.289c5.351-1.736,11.3-1.395,16.58,1.231c3.848,1.913,8.485,1.155,11.523-1.883
		s3.796-7.677,1.883-11.523c-4.212-8.471-2.546-18.657,4.144-25.348c6.69-6.691,16.876-8.356,25.348-4.143
		c3.847,1.914,8.486,1.154,11.523-1.883c3.038-3.038,3.796-7.677,1.883-11.523c-4.211-8.471-2.546-18.657,4.144-25.349
		c6.691-6.689,16.878-8.355,25.348-4.144c3.846,1.912,8.485,1.155,11.523-1.883c3.038-3.038,3.795-7.677,1.883-11.523
		c-4.212-8.471-2.547-18.657,4.144-25.348c4.155-4.155,9.68-6.444,15.556-6.444c5.876,0,11.401,2.289,15.556,6.444l56.569,56.568
		c4.155,4.155,6.444,9.68,6.444,15.557C422.326,104.445,420.037,109.97,415.883,114.125z"/>

	</symbol>

	<symbol id="right-arrow" viewBox="0 0 14.2 25.5">

		<polygon points="14.2,12.7 1.5,0 0,1.5 11.3,12.7 0,24 1.5,25.5 14.2,12.7 14.2,12.7 "/>

	</symbol>

	<symbol id="left-arrow" viewBox="0 0 14.2 25.5">

		<polygon points="14.2,12.7 1.5,0 0,1.5 11.3,12.7 0,24 1.5,25.5 14.2,12.7 14.2,12.7 "/>

	</symbol>		

	<symbol id="grape" viewBox ="0 -4 511.99686 511">
		<path d="m350.800781 271.742188c46.082031-31.78125 35.242188-110.890626-19.941406-126.097657-3.917969-1.082031-19.441406-.492187-21.324219-2.28125-3.144531-2.984375-4.996094-17.289062-7.417968-21.734375-6.90625-12.6875-17.902344-22.898437-30.890626-29.160156-27.035156-13.03125-59.71875-7.410156-79.855468 15.144531-19.398438-26.257812-53.28125-34.222656-82.585938-20.097656-12.980468 6.257813-24.207031 16.328125-31.5 28.785156-3.742187 6.390625-6.417968 13.371094-7.871094 20.632813-1.75 8.738281.476563 16.734375-.203124 25.242187-.472657 5.878907.882812 4.691407-5.542969 7.15625-3.648438 1.398438-7.160157 3.136719-10.507813 5.15625-7.402344 4.476563-13.820312 10.378907-19 17.300781-9.914062 13.246094-15.035156 29.925782-14.492187 46.449219.25 7.542969 1.671875 15.074219 4.28125 22.15625 1.527343 4.144531 3.460937 8.144531 5.75 11.917969.964843 1.589844 3.308593 4.042969 3.816406 5.613281 1.472656 4.566407 1.546875.949219-.691406 5.304688-4.207031 8.1875-11.878907 14.121093-15.617188 23.191406-3.769531 9.140625-5.640625 18.964844-5.519531 28.855469.113281 9.28125 1.964844 18.542968 5.582031 27.101562 1.722657 4.078125 4.511719 7.628906 6.292969 11.597656 1.5 3.347657 2.722656 2.964844 1.921875 5.84375-.363281 1.3125-5.988281 5.449219-6.8125 6.332032-12.28125 13.179687-18.800781 31.089844-18.671875 49.035156.28125 38.738281 32.1875 71.261719 71.460938 69.214844 17.636718-.917969 34.714843-8.703125 46.746093-21.671875 1.78125-1.917969 6.722657-11.242188 8.796875-11.875 1.691406-.519531 10.4375 4.007812 12.207032 4.472656 9.257812 2.414063 18.925781 2.699219 28.335937 1.03125 17.488281-3.105469 33.535156-13.132813 43.96875-27.507813 2.863281-3.945312 4.488281-8.777343 7.269531-12.640624.65625-.90625 1.175782-4.738282 2.066406-5.203126.4375-.230468 6.539063 1.785157 7.773438 2.027344 10.25 2.011719 20.976562 1.503906 31.023438-1.316406 10.65625-2.988281 20.53125-8.574219 28.609374-16.125 2.21875-2.078125 8.921876-12.953125 11.359376-13.785156 2.75-.941406 11.859374 3.152344 15.066406 3.507812 21.214844 2.34375 42.800781-6.078125 57.367187-21.558594 31.804688-33.800781 20.949219-92.273437-21.25-112.015624 2.710938-1.871094 5.421875-3.738282 8.132813-5.609376-2.710938 1.871094-5.421875 3.738282-8.132813 5.609376zm-56.328125-71.714844c2.46875-2.886719 4.96875-6.304688 6.667969-9.714844.578125-1.007812 1.125-2.03125 1.640625-3.074219 2.425781-4.863281 4.359375-9.921875 5.625-15.21875 1.746094-7.285156.175781-8.355469 7.449219-8.976562 6.875-.585938 15.1875 2.765625 20.976562 6.242187 11.523438 6.914063 19.050781 18.96875 22.019531 31.90625 2.882813 12.582032 1.640626 26.414063-4.363281 37.933594-3.226562 6.1875-7.804687 11.613281-13.460937 15.71875-1.875 1.363281-18.621094 9.394531-18.621094 7.628906.019531-.328125.03125-.660156.03125-.996094.058594-2.351562.011719-4.792968-.207031-7.140624-.019531-.355469-.050781-.710938-.089844-1.066407 0-.046875-.007813-.097656-.007813-.15625-2.148437-20.4375-12.484374-39.195312-29.417968-51 .585937-.695312 1.171875-1.390625 1.757812-2.085937.296875-.347656-.558594.707031 0 0 2.527344-2.957032-.558594.707031 0 0zm-1.425781 29.679687c.15625.195313.296875.382813.421875.582031 2.476562 3.472657 4.453125 7.289063 5.96875 11.269532.175781.453125.34375.90625.492188 1.367187.078124.1875.136718.375.195312.5625.109375.304688.207031.609375.296875.925781 1.101563 3.195313 1.589844 6.585938 2.066406 9.917969.046875.472657.097657.945313.125 1.421875.03125.226563.039063.453125.050781.679688.039063.453125.058594.90625.078126 1.359375.011718.105469.011718.226562.011718.332031.203125 4.273438.085938 9.457031-1.277344 13.554688-.089843.386718-.148437.761718-.179687 1.144531-7.160156 17.226562-18.167969 32.535156-37.429687 36.625-.011719 0-.03125.011719-.039063.011719-12.039063 2.570312-26.515625.398437-36.527344-7.121094-.804687-.523438-1.574219-1.074219-2.289062-1.625-.011719-.011719-.03125-.023438-.039063-.03125-20.550781-15.621094-24.304687-43.796875-12.089844-65.835938 12.660157-22.835937 35.667969-29.558594 59.527344-21.582031.523438.21875 1.03125.453125 1.542969.691406.011719 0 .023437 0 .03125.007813.5.238281 1.003906.472656 1.496094.730468.085937.039063.175781.089844.265625.128907 1.425781.730469 2.8125 1.535156 4.148437 2.410156 1.226563.792969 2.417969 1.636719 3.570313 2.535156 1.09375.84375 2.148437 1.742188 3.152344 2.6875.1875.15625.367187.324219.542968.503907 1.296875 1.125 5.449219 6.136718 5.886719 6.746093.15625.195313-.570313-.796875 0 0zm-104.996094 10.855469c-.632812 2.214844-1.144531 4.460938-1.546875 6.746094-14.210937.386718-26.78125-5.949219-36.605468-15.820313-6.125-6.679687-10.351563-14.933593-12.222657-23.867187-9.355469-24.417969 13.308594-54.101563 36.09375-59.824219-2.574219 24.976563 8.878907 50.527344 29.410157 65.035156-7.082032 7.988281-12.324219 17.597657-15.179688 27.886719.398438-1.425781.8125-2.847656 1.203125-4.277344-.382813 1.375-.769531 2.75-1.152344 4.121094-.632812 2.214844 2.886719-10.304688 0 0zm14.589844 65.980469h-.011719v.011719c-11.335937 7.996093-21.535156 20.425781-25.394531 33.976562h-.011719c-1.617187-.394531-3.210937-.851562-4.789062-1.378906-4.523438-1.511719-9.414063-1.847656-14.15625-1.933594-1.898438-.039062-3.796875-.011719-5.695313.082031-1.46875.253907-2.941406.382813-4.421875.382813-1.207031.058594-2.390625.238281-3.550781.53125-.078125.011718-.167969.019531-.246094.039062-.503906.199219-1.019531.296875-1.542969.296875-16.371093-8.945312-27.152343-27.351562-26.222656-46.0625v-.128906c.023438-.515625.046875-1.03125.066406-1.546875 0-.058594 0-.117188.011719-.167969.019531-.382812.050781-.757812.078125-1.132812 0-.046875.011719-.097657.011719-.148438.125-1.414062.246094-3.269531.609375-4.726562.332031-1.898438.765625-3.761719 1.328125-5.605469.019531-.058594.039063-.128906.058594-.1875.019531-.117188.058593-.226562.097656-.34375.972656-3.453125 2.460937-6.410156 4.039063-9.574219.789062-1.433593 1.640624-2.820312 2.558593-4.167969 2.617188-4.007812 5.929688-7.601562 9.675781-10.582031 1.054688-1.109375 2.246094-1.996093 3.578126-2.660156.410156-.285156.824218-.558594 1.246093-.816406.296875-.195313.59375-.375.886719-.550781l.011719.007812c12.40625 10.886719 28.148437 16.867188 44.570312 16.867188h.292969c.316406 3.8125.746094 9.34375 2.476562 12.816406.203126.722656.421876 1.441406.660157 2.15625.019531.066406.050781.128906.070312.195312.238281.726563.488281 1.449219.746094 2.167969 2.949219 8.125 7.34375 15.609375 12.96875 22.183594zm-3.460937-176.003907c.039062-.089843.085937-.179687.128906-.265624.007812-.019532.027344-.050782.039062-.070313 23.855469-43.65625 90.925782-24.195313 91.457032 24.292969 0 .105468 0 .226562.011718.335937v.144531c0 11.613282-3.996094 22.808594-11.050781 31.957032-.058594.070312-.109375.136718-.167969.207031-1.640625 2.078125-3.496094 4.011719-5.445312 5.792969-13.253906-4.347656-31.417969-5.101563-44.257813 1.339844-1.855469.691406-9.207031 5.398437-10.855469 5.308593-2.585937-.140625-6.589843-4.363281-8.371093-5.894531-5.765625-4.953125-10.394531-11.222656-13.40625-18.210938-.03125-.078124-.058594-.15625-.097657-.234374-6.046874-14.269532-4.585937-32.511719 1.695313-44.117188-.570313 1.058594-.464844.859375.320313-.585938.039062-.089843-1.523438 2.816407 0 0zm-62.464844-31.050781c17.972656 0 34.375 10.1875 42.898437 26.28125-.082031.160157-.148437.316407-.21875.484375-.105469.226563-.207031.453125-.304687.6875-34.933594 3.261719-61.769532 34.5625-62.199219 69.203125-4.027344-1.699219-7.953125-4.210937-11.207031-7.132812-.363282-.292969-.71875-.609375-1.0625-.925781-36.132813-27.125-10.605469-88.597657 32.09375-88.597657zm-59.042969 86.164063c.058594.109375.128906.230468.195313.328125 1.203124 2.089843 3.015624 5.417969 4.828124 7.230469.265626.363281.550782.726562.835938 1.082031.175781.238281.363281.464843.5625.691406.261719.335937.527344.660156.8125.996094 0 .007812 0 .007812.011719.007812 5.320312 6.429688 12.371093 12.550781 19.957031 16.1875 3.960938 2.132813 12.105469 3.148438 15.214844 5.898438 3.160156 2.800781 5.296875 12.964843 7.835937 16.964843-3.453125 2.125-6.683593 4.859376-9.550781 7.730469-.15625.140625-.3125.289063-.460938.445313-.273437.253906-.539062.519531-.796874.796875-4.632813 4.640625-8.441407 9.96875-11.601563 15.703125-.046875.078125-.085937.167968-.125.246094-.980469.839843-1.46875 1.800781-1.464844 2.875-.226562.523437-.464843 1.039062-.71875 1.546874-.011719.019532-.019531.03125-.019531.050782-.707031 1.550781-1.351562 3.125-1.929688 4.726562-.464843 1.28125-1.054687 2.722656-1.347656 4.078125-.121094.394531-.234375.792969-.34375 1.191407-.117187.382812-.222656.769531-.3125 1.164062-.039062.125-.070312.253906-.097656.382812-.089844.304688-.167969.609376-.238281.914063-.007813.058594-.027344.109375-.039063.167969-.539062 2.226562-.726562 4.542968-1.277344 6.757812-.007812.050782-.007812.089844-.019531.140625-.011719.035157-.011719.078125-.011719.117188-.019531.078125-.019531.15625-.027343.234375l-.03125.238281s0 0-.007813 0c-.535156.078125-1.066406.179687-1.59375.304687-3.851562.640626-7.925781.949219-11.808594.542969-.039062 0-.089843-.011719-.128906-.011719-.472656-.039062-.945312-.078124-1.40625-.128906-.097656-.019531-.1875-.027344-.273437-.027344-4.039063-.527343-8.011719-1.503906-11.820313-2.957031-1.796875-.707031-3.542968-1.519531-5.238281-2.433593-.867187-.566407-1.761719-1.082032-2.683594-1.546876-.5-.308593-.992187-.628906-1.476562-.964843-.375-.253907-.757813-.511719-1.132813-.777344-.019531-.019531-.039062-.03125-.058594-.039063-.960937-.78125-1.9375-1.542968-2.929687-2.285156-30.484375-25.617187-18.882813-79.898437 20.71875-88.570312-.164063-.300782-8.636719 1.875-9.804687 2.171875 3.242187-.820313 6.542968-1.457031 9.804687-2.171875.058594.109375-22.183594 4.859375 0 0zm-27.226563 108.261718c3.449219 2.292969 10.074219 7.25 14.316407 7.25 6.058593 2.160157 12.679687 3.753907 19.132812 3.960938h.011719c3.222656.210938 6.988281.464844 10.1875-.175781 2.421875-1.507813 3.628906-1.648438 3.625-.425781 1.585938 10.324218 5.507812 22.820312 12.527344 30.855468 0 .007813.011718.019532.011718.019532 3.082032 4.296874 6.578126 8.265624 10.605469 11.703124.039063.027344.070313.066407.121094.097657-10.066406 6.164062-29.027344 22.675781-29.027344 35.90625-2.34375.585937-4.777343 1.078125-7.195312 1.28125-.199219.03125-.394531.046875-.589844.058593-48.230469 4.402344-70.789063-61.472656-33.726563-90.53125.082032.054688-4.5 4.78125-5.183593 4.328126-.117188-.078126 6.648437-5.476563 5.183593-4.328126 1.621094 1.078126-12.074218 9.46875 0 0zm17.777344 191.277344c-25.398437 0-44.796875-20.144531-47.828125-44.695312-1.417969-11.515625.777344-23.445313 6.878907-33.382813 2.507812-4.082031 7.152343-11.394531 11.808593-12.976562 5.480469-1.863281 15.6875 5.355469 22.269531 7.558593 7.230469 2.066407 15.125 3.199219 22.660157 2.511719 1.273437-.109375 2.542969-.21875 3.816406-.324219-.5 8.488282.558594 17.734376 3.460937 25.738282 1.09375 3.476562 2.402344 7.3125 4.335938 10.410156 2.621094 5.15625 5.882812 10.484375 9.988281 14.601562 5.042969 5.828126 5.585938 5.527344.574219 11.921876-2.878906 3.671874-6.238281 6.867187-10.023438 9.585937-8.140624 5.847656-17.902343 9.050781-27.941406 9.050781zm136.234375-69.34375c0 .019532-.007812.03125-.007812.050782-6.21875 37.96875-52.851563 55.195312-81.019531 28.324218-12.667969-12.078125-20.039063-30-15.414063-47.320312 4.371094-16.371094 17.835937-35.816406 36.121094-38.433594 9.078125-2.410156 27.535156-3.1875 34.964843 4.253906.019532.011719.03125.019532.050782.03125h.007812c.011719 0 .011719.011719.019532.011719 18.820312 10.324219 28.511718 33.730469 25.382812 52.476563.167969-1.027344.136719-.824219-.105469.605468 0 .019532.464844-2.765625 0 0zm37.316407-1.191406c-5.839844 0-11.640626-1.082031-17.082032-3.171875.15625-2.699219.285156-5.816406-.019531-8.550781-.171875-2.929688-.648437-5.785156-1.0625-8.6875-.117187-.613282-.234375-1.222656-.363281-1.832032-.007813-.019531-.007813-.039062-.019532-.058593-.109374-.535157-.226562-1.066407-.355468-1.585938-.007813-.050781-.019532-.089843-.027344-.140625-2.460938-9.25-7.523438-24.964844-16.007812-30.644531-.394532-.453125-.796876-.894531-1.21875-1.332031-.199219-.226563-.414063-.453125-.648438-.679688-2.96875-3.203125-6.417969-5.988281-9.960938-8.519531.03125-.109375.058594-.207031.097657-.304687.078125-.296876.167969-.582032.265625-.867188.914062-3.050781 2.261718-6.207031 3.863281-8.984375 2.230469-4.214844 5.125-8.089844 8.554687-11.40625.265626-.277344.539063-.542969.816407-.796875.253906-.257812.511719-.496094.777343-.730469.214844-.207031.441407-.402343.667969-.589843.117188-.121094.234375-.226563.355469-.316407.234375-.207031.460938-.402343.695312-.589843 2.148438-1.878907 4.609376-3.546876 7.109376-4.9375 10.839843 6.789062 23.082031 10.195312 35.859374 10.265624-.011718.128907-.019531.265626-.039062.40625-.648438 9.984376.804688 20.027344 4.207031 29.429688 1.902344 5.257812 7.082031 19.085938 12.605469 21.863281.148438.175781.296875.355469.460938.53125 0 .011719.011718.03125.039062.039063l.011719.011718c.304687.355469.617187.707032.945312 1.050782v.011718c1.992188 2.21875 4.136719 4.289063 6.421875 6.207032 4.273438 1.46875 4.648438 3.492187 1.128906 6.066406-1.460937 3.683594-6.992187 7.433594-10.101562 9.675781-8.136719 5.871094-17.910156 9.167969-27.976562 9.167969zm80.632812-28.554688c-30.460938 0-52.78125-29.753906-48.167969-59.046874 8.886719-2.804688 20.191407-8.046876 26.164063-15.535157.695312-.65625 1.371094-1.324219 2.035156-2.011719.117188-.105468.226562-.214843.324219-.332031.921875-.949219 1.804687-1.925781 2.652343-2.9375.265626-.296875.511719-.589843.757813-.894531.109375-.121094.207031-.238281.304687-.367188 1.464844-1.765624 3.550782-4.199218 4.621094-6.34375 2.550782-3.863281 4.808594-8.128906 6.429688-12.46875.121094-.265624.21875-.542968.324218-.820312 27.90625-2.738281 52.414063 20.898438 53.363282 48.390625.9375 27.191406-21.078125 52.367187-48.808594 52.367187zm0 0"/><path d="m436.164062 144.464844c-5.429687 0-9.835937-4.410156-9.835937-9.851563 0-5.4375 4.398437-9.847656 9.828125-9.847656h.007812c5.433594 0 9.832032 4.410156 9.832032 9.847656 0 5.441407-4.398438 9.851563-9.832032 9.851563zm0 0"/><path d="m507.773438 167.695312c-8.789063-36.222656-35.160157-67.203124-78.429688-92.183593 6.222656-9.453125 38.347656-71.0625 15.484375-74.859375-13.910156-2.308594-13.835937 21.902344-16.429687 30.492187-4.378907 14.5-10.917969 28.492188-20.304688 40.4375-.007812 0-.007812 0-.019531.007813-18.230469 23.917968-48.546875 37.472656-78.3125 37.472656-8.421875-.457031-13.558594 10.085938-7.871094 16.394531 3.921875 4.351563 10.558594 3.425781 15.78125 3.09375 19.242187-1.210937 38.539063-7.289062 54.976563-17.359375-18.984376 70.296875 27.625 122.894532 83.113281 158.519532 0 0 .007812.011718.019531.011718.097656.058594.1875.117188.292969.175782 1.621093 1.003906 3.902343 1.542968 5.761719 1.332031.148437 0 .296874-.019531.453124-.050781.359376-.035157.710938-.097657 1.0625-.1875.605469-.121094 1.226563-.367188 1.789063-.621094.070313-.019532.136719-.058594.199219-.089844.066406-.027344.136718-.058594.195312-.097656 1.371094-.6875 2.5625-1.726563 3.472656-2.964844.035157-.046875.078126-.105469.117188-.15625 1.292969-1.863281 31.578125-46.09375 18.648438-99.367188-8.789063-36.222656 12.929687 53.273438 0 0zm-24.511719 67.578126c-5.246094-16.757813-10.542969-33.507813-16.21875-50.125-2.734375-8.019532-6.074219-27.601563-16.59375-28.785157-17.171875-1.925781-7.84375 18.511719-5.054688 26.316407 6.390625 17.871093 12.035157 36.03125 17.730469 54.128906-22.128906-17.109375-43.28125-38.65625-51.746094-66.042969-8.175781-26.457031-1.585937-53.082031 8.335938-78.085937 52.070312 30.136718 87.253906 81.429687 63.546875 142.59375-8.199219-26.195313 0 0 0 0zm0 0"/>
	    
	</symbol>

    
</svg>